<svg width="130" height="20" viewBox="0 0 130 20" fill="none" xmlns="http://www.w3.org/2000/svg">
<g clip-path="url(#clip0_1593_365)">
<path d="M22.6545 4.68701C19.3354 4.68701 17.1706 5.85298 15.1069 8.85337C15.0997 8.86379 15.0902 8.87231 15.079 8.8782C15.0678 8.88409 15.0554 8.88717 15.0427 8.88717C15.0301 8.88717 15.0177 8.88409 15.0065 8.8782C14.9953 8.87231 14.9858 8.86379 14.9786 8.85337C12.911 5.86464 10.7462 4.68701 7.43101 4.68701C3.10921 4.68701 0 7.86229 0 12.2424C0 16.7352 3.10921 20.0154 7.43101 20.0154C10.7151 20.0154 12.81 18.8495 14.9786 15.7208C14.9863 15.7111 14.996 15.7033 15.0071 15.6979C15.0182 15.6925 15.0304 15.6897 15.0427 15.6897C15.0551 15.6897 15.0673 15.6925 15.0784 15.6979C15.0895 15.7033 15.0992 15.7111 15.1069 15.7208C17.2756 18.83 19.382 20.0154 22.6545 20.0154C26.9608 20.0154 30.0855 16.7508 30.0855 12.2424C30.0855 7.86229 26.9608 4.68701 22.6545 4.68701ZM22.6195 7.93613C25.0952 7.93613 26.7587 9.66564 26.7587 12.2424C26.7587 14.8192 25.0175 16.6808 22.6195 16.6808C20.2876 16.6808 18.698 15.5459 16.9957 12.6583C16.9275 12.5401 16.8916 12.4061 16.8916 12.2696C16.8916 12.1332 16.9275 11.9991 16.9957 11.881C18.6553 9.04768 20.2721 7.93613 22.6195 7.93613V7.93613ZM7.46211 16.6808C5.06413 16.6808 3.32296 14.8153 3.32296 12.2424C3.32296 9.66952 4.9864 7.93613 7.46211 7.93613C9.79402 7.93613 11.4069 9.0477 13.0781 11.8693C13.1463 11.9875 13.1823 12.1215 13.1823 12.258C13.1823 12.3944 13.1463 12.5284 13.0781 12.6466C11.3914 15.5421 9.79013 16.6808 7.46599 16.6808H7.46211Z" fill="#FFB92E"/>
<path d="M46.7003 19.0402C46.2132 19.0574 45.7374 18.8909 45.3673 18.5738C45.1995 18.4298 45.0652 18.2508 44.9739 18.0493C44.8825 17.8479 44.8364 17.629 44.8387 17.4078V12.2271C44.8387 11.1816 44.6094 10.4354 44.143 9.98458C43.9169 9.76318 43.6488 9.58929 43.3544 9.47315C43.0601 9.357 42.7454 9.30096 42.4291 9.30833C42.1059 9.29806 41.784 9.35261 41.4823 9.46876C41.1806 9.5849 40.9052 9.76029 40.6724 9.98458C40.227 10.3986 39.9237 10.9427 39.8057 11.5392V17.2057C39.8095 17.4333 39.7643 17.6591 39.6731 17.8677C39.5819 18.0762 39.4468 18.2627 39.2771 18.4144C38.9257 18.7366 38.4634 18.9106 37.9868 18.9002C37.493 18.9148 37.0108 18.749 36.6304 18.4339C36.4547 18.2911 36.3141 18.1101 36.2191 17.9047C36.1241 17.6992 36.0773 17.4748 36.0824 17.2485V7.78482C36.0812 7.56385 36.1278 7.34521 36.219 7.14394C36.3102 6.94268 36.444 6.76357 36.611 6.61887C36.9901 6.28615 37.4828 6.11218 37.9868 6.13306C38.3815 6.1195 38.7697 6.23674 39.0909 6.46658C39.4121 6.69641 39.6484 7.02595 39.7629 7.40393C40.5247 6.41676 41.6816 5.92317 43.2336 5.92317C44.6498 5.86393 46.0322 6.36525 47.0812 7.31844C48.0684 8.2512 48.562 9.73196 48.562 11.7607V17.4739C48.566 17.6886 48.5203 17.9012 48.4286 18.0954C48.337 18.2895 48.2017 18.4599 48.0334 18.5932C47.6583 18.8995 47.1843 19.0584 46.7003 19.0402Z" fill="#FFB92E"/>
<path d="M54.6552 19.0399C54.4148 19.0492 54.1748 19.0107 53.9493 18.9267C53.7238 18.8426 53.5173 18.7146 53.3416 18.5502C53.1716 18.3826 53.0388 18.1811 52.9517 17.9588C52.8647 17.7365 52.8254 17.4984 52.8363 17.2599V10.1553C52.8418 10.0983 52.8345 10.0409 52.8151 9.98701C52.7957 9.93316 52.7647 9.88426 52.7242 9.84379C52.6838 9.80331 52.6349 9.77229 52.581 9.75291C52.5272 9.73353 52.4697 9.72629 52.4127 9.7317H51.822C51.6084 9.7477 51.3941 9.71388 51.1958 9.63295C50.9975 9.55202 50.8207 9.42618 50.6793 9.26531C50.4123 8.92933 50.2744 8.50881 50.2907 8.07993C50.2723 7.63168 50.4097 7.19088 50.6793 6.83235C50.8178 6.66675 50.9935 6.53636 51.1922 6.45191C51.3908 6.36745 51.6067 6.33134 51.822 6.34654H52.4127C52.4697 6.35195 52.5272 6.34471 52.581 6.32533C52.6349 6.30595 52.6838 6.2749 52.7242 6.23443C52.7647 6.19396 52.7957 6.14506 52.8151 6.0912C52.8345 6.03735 52.8418 5.97988 52.8363 5.9229V5.0329C52.8363 3.47829 53.2522 2.28642 54.0839 1.4573C54.517 1.0371 55.0313 0.709722 55.5954 0.495205C56.1594 0.280687 56.7612 0.183566 57.3641 0.209741C57.7097 0.212748 58.0548 0.234799 58.3979 0.275805C58.7075 0.301429 59.0128 0.364053 59.3074 0.46235C59.6689 0.57891 59.9774 0.819908 60.178 1.14249C60.3553 1.43563 60.4493 1.77154 60.45 2.11412C60.45 2.56464 60.3026 3.00281 60.0303 3.3617C59.8949 3.54709 59.7159 3.69621 59.5092 3.79587C59.3024 3.89553 59.0742 3.94263 58.8449 3.933C58.6294 3.93511 58.4148 3.90633 58.2075 3.84751C58.001 3.79167 57.7879 3.7642 57.574 3.76589C56.8978 3.76589 56.5596 4.24523 56.5596 5.2039V5.9229C56.5542 5.97988 56.5615 6.03735 56.5808 6.0912C56.6002 6.14506 56.6312 6.19396 56.6717 6.23443C56.7122 6.2749 56.7611 6.30595 56.8149 6.32533C56.8688 6.34471 56.9263 6.35195 56.9833 6.34654H58.5379C58.7635 6.34127 58.9877 6.38353 59.196 6.47058C59.4042 6.55762 59.5918 6.6875 59.7466 6.85178C60.0653 7.17617 60.2427 7.61349 60.2401 8.06826C60.248 8.28902 60.2088 8.50892 60.125 8.71332C60.0413 8.91772 59.9149 9.10192 59.7543 9.25364C59.5873 9.40962 59.3911 9.53112 59.177 9.61115C58.9629 9.69118 58.7352 9.72818 58.5068 9.72003H56.9833C56.9263 9.71462 56.8688 9.72186 56.8149 9.74124C56.7611 9.76061 56.7122 9.79164 56.6717 9.83211C56.6312 9.87258 56.6002 9.92151 56.5808 9.97537C56.5615 10.0292 56.5542 10.0867 56.5596 10.1437V17.2482C56.5651 17.4852 56.5209 17.7207 56.4299 17.9396C56.3388 18.1585 56.203 18.3559 56.0311 18.5191C55.8476 18.6926 55.6315 18.828 55.3953 18.9174C55.1592 19.0068 54.9076 19.0484 54.6552 19.0399V19.0399Z" fill="#FFB92E"/>
<path d="M69.3384 19.0399C68.2384 19.0813 67.1641 18.7019 66.3341 17.9789C65.5568 17.2754 65.1682 16.1911 65.1682 14.722V10.1553C65.1736 10.0984 65.1663 10.0409 65.147 9.98703C65.1276 9.93317 65.0965 9.88427 65.0561 9.8438C65.0156 9.80333 64.9667 9.7723 64.9128 9.75292C64.859 9.73354 64.8015 9.72631 64.7445 9.73171H64.111C63.8975 9.74771 63.6831 9.71389 63.4848 9.63296C63.2866 9.55203 63.1098 9.42619 62.9684 9.26533C62.7013 8.92935 62.5635 8.50883 62.5798 8.07995C62.5614 7.63169 62.6987 7.19089 62.9684 6.83237C63.1068 6.66677 63.2826 6.53638 63.4812 6.45192C63.6799 6.36747 63.8957 6.33136 64.111 6.34655H64.7445C64.8015 6.35196 64.859 6.34472 64.9128 6.32535C64.9667 6.30597 65.0156 6.27492 65.0561 6.23444C65.0965 6.19397 65.1276 6.14507 65.147 6.09122C65.1663 6.03736 65.1736 5.97989 65.1682 5.92291V2.79038C65.1643 2.56263 65.2071 2.33651 65.294 2.12595C65.3809 1.91539 65.51 1.72487 65.6734 1.56615C65.8459 1.39598 66.0515 1.263 66.2775 1.17543C66.5034 1.08786 66.7449 1.04756 66.987 1.05701C67.4775 1.04079 67.9551 1.21487 68.3201 1.54283C68.493 1.70032 68.6298 1.89337 68.721 2.10872C68.8123 2.32408 68.8558 2.55661 68.8487 2.79038V5.92291C68.8433 5.97989 68.8505 6.03736 68.8699 6.09122C68.8893 6.14507 68.9203 6.19397 68.9608 6.23444C69.0013 6.27492 69.0502 6.30597 69.104 6.32535C69.1579 6.34472 69.2153 6.35196 69.2723 6.34655H70.8269C71.0519 6.34159 71.2755 6.384 71.4831 6.47104C71.6906 6.55809 71.8776 6.68781 72.0318 6.85179C72.1896 7.01445 72.3137 7.20668 72.3971 7.41743C72.4805 7.62818 72.5214 7.85333 72.5176 8.07995C72.5255 8.3007 72.4862 8.5206 72.4024 8.725C72.3187 8.9294 72.1923 9.1136 72.0318 9.26533C71.8647 9.42131 71.6685 9.54278 71.4544 9.62281C71.2403 9.70284 71.0126 9.73986 70.7842 9.73171H69.2607C69.2037 9.72631 69.1462 9.73354 69.0924 9.75292C69.0385 9.7723 68.9896 9.80333 68.9491 9.8438C68.9087 9.88427 68.8776 9.93317 68.8582 9.98703C68.8389 10.0409 68.8316 10.0984 68.837 10.1553V14.1312C68.7981 14.5054 68.8961 14.881 69.113 15.1884C69.2008 15.2848 69.3084 15.3611 69.4285 15.4121C69.5486 15.4631 69.6783 15.4875 69.8087 15.4837C70.0378 15.4669 70.2652 15.4318 70.4888 15.3788C70.6972 15.3288 70.9089 15.2937 71.1223 15.2739C71.338 15.2705 71.5518 15.314 71.749 15.4012C71.9463 15.4884 72.1223 15.6173 72.2649 15.7791C72.5378 16.082 72.7008 16.468 72.7276 16.8748C72.7544 17.2816 72.6434 17.6856 72.4126 18.0216C72.1675 18.3544 71.8167 18.5941 71.4177 18.7018C71.0654 18.806 70.7072 18.8891 70.345 18.9505C70.0124 19.0069 69.6757 19.0368 69.3384 19.0399V19.0399Z" fill="#FFB92E"/>
<path d="M80.1665 19.0399C79.6422 19.0436 79.1304 18.8803 78.7052 18.5735C78.2508 18.2343 77.9413 17.7359 77.8385 17.1783L75.3006 8.2937C75.2734 8.18099 75.2501 8.07994 75.2384 7.99443C75.223 7.91111 75.2152 7.82654 75.2151 7.7418C75.2108 7.49996 75.2578 7.25997 75.3529 7.03758C75.4481 6.81519 75.5892 6.61546 75.767 6.4515C75.9458 6.27763 76.1575 6.14129 76.3898 6.05051C76.6221 5.95974 76.8702 5.91635 77.1195 5.92291C78.0523 5.92291 78.6158 6.34525 78.8101 7.18992L80.1238 13.4083C80.2093 13.7193 80.3336 13.8747 80.5124 13.8747C80.6912 13.8747 80.8505 13.7309 80.936 13.4511L82.7472 8.06828C82.8828 7.63233 83.1676 7.25808 83.5517 7.01116C83.893 6.79281 84.2891 6.67556 84.6943 6.67301C85.1065 6.67737 85.5097 6.79431 85.8603 7.01116C86.0505 7.12634 86.2147 7.27977 86.3425 7.46175C86.4702 7.64372 86.5588 7.85026 86.6026 8.06828L88.3787 13.4433C88.4642 13.7232 88.5886 13.867 88.7674 13.867C88.9462 13.867 89.0628 13.7115 89.156 13.4006L90.4658 7.18214C90.6627 6.34006 91.2275 5.91775 92.1603 5.91516C92.4096 5.90881 92.6576 5.95228 92.8898 6.04304C93.1221 6.1338 93.3339 6.27003 93.5128 6.44372C93.6898 6.60828 93.8304 6.80812 93.9255 7.03037C94.0206 7.25262 94.068 7.49234 94.0647 7.73404C94.0647 7.81879 94.0568 7.90333 94.0414 7.98665C94.0414 8.07216 94.0064 8.17321 93.9792 8.28592L91.4413 17.1705C91.3108 17.7277 90.989 18.2215 90.5318 18.5658C90.1066 18.8725 89.5948 19.0359 89.0705 19.0321C88.5836 19.0311 88.1097 18.8745 87.718 18.5852C87.2572 18.2396 86.9161 17.7585 86.7425 17.2094L85.0519 12.2191C84.9664 11.9082 84.8381 11.7527 84.6632 11.7527C84.4883 11.7527 84.3251 11.9082 84.2396 12.2191L82.5451 17.2094C82.41 17.7335 82.1038 18.1974 81.675 18.5276C81.2462 18.8579 80.7194 19.0354 80.1782 19.0321L80.1665 19.0399Z" fill="#FFB92E"/>
<path d="M99.0368 4.01847C98.4746 4.02935 97.9296 3.82496 97.5133 3.44714C97.3068 3.26507 97.1429 3.03974 97.0334 2.78716C96.9239 2.53459 96.8715 2.26097 96.8798 1.98581C96.8798 1.72152 96.9363 1.46032 97.0456 1.21968C97.1548 0.979034 97.3143 0.764533 97.5133 0.59056C97.9246 0.202536 98.4713 -0.00945151 99.0368 -0.000197566C99.3073 -0.00312026 99.5757 0.0475909 99.8265 0.148986C100.077 0.250382 100.306 0.40046 100.498 0.59056C100.691 0.767894 100.845 0.983578 100.95 1.22383C101.055 1.46407 101.109 1.72359 101.108 1.98581C101.117 2.25887 101.067 2.53066 100.962 2.78277C100.857 3.03488 100.698 3.26143 100.498 3.44714C100.104 3.82111 99.5798 4.02618 99.0368 4.01847V4.01847ZM99.0368 19.0398C98.544 19.0552 98.0628 18.8893 97.6843 18.5735C97.5101 18.4335 97.3699 18.2559 97.2743 18.0539C97.1787 17.852 97.1302 17.6309 97.1324 17.4075V7.7845C97.1311 7.56353 97.1777 7.34488 97.269 7.14362C97.3602 6.94236 97.4939 6.76324 97.6609 6.61855C98.0401 6.28582 98.5328 6.11185 99.0368 6.13273C99.2802 6.11981 99.5238 6.15619 99.7528 6.23967C99.9819 6.32315 100.192 6.45201 100.37 6.61855C100.529 6.77656 100.653 6.9652 100.737 7.17299C100.82 7.38077 100.861 7.60336 100.856 7.82725V17.3453C100.861 17.5726 100.816 17.7982 100.725 18.0064C100.634 18.2146 100.498 18.4002 100.327 18.5501C99.9773 18.8755 99.5143 19.0512 99.0368 19.0398Z" fill="#FFB92E"/>
<path d="M110.502 19.04C109.402 19.0807 108.328 18.7014 107.498 17.979C106.721 17.2769 106.325 16.1912 106.312 14.7221V10.1555C106.318 10.0988 106.311 10.0417 106.291 9.9882C106.272 9.93465 106.242 9.88594 106.202 9.84554C106.162 9.80514 106.113 9.77403 106.06 9.75438C106.006 9.73473 105.949 9.72704 105.893 9.73184H105.255C105.042 9.74694 104.828 9.71273 104.63 9.63186C104.431 9.55099 104.255 9.42562 104.113 9.26546C103.847 8.92866 103.709 8.50871 103.724 8.08008C103.707 7.63203 103.844 7.19175 104.113 6.8325C104.252 6.66738 104.427 6.53734 104.626 6.45293C104.824 6.36852 105.04 6.33212 105.255 6.34668H105.893C105.949 6.35148 106.006 6.34377 106.06 6.32412C106.113 6.30447 106.162 6.27336 106.202 6.23296C106.242 6.19256 106.272 6.14387 106.291 6.09032C106.311 6.03678 106.318 5.97966 106.312 5.92304V2.79051C106.309 2.56251 106.353 2.33629 106.44 2.12574C106.528 1.9152 106.658 1.72481 106.822 1.56627C106.994 1.39573 107.199 1.26249 107.425 1.1749C107.651 1.0873 107.893 1.04722 108.135 1.05714C108.625 1.04173 109.103 1.2157 109.468 1.54296C109.64 1.70109 109.777 1.89425 109.868 2.10945C109.959 2.32465 110.003 2.55688 109.997 2.79051V5.92304C109.991 5.98002 109.999 6.03749 110.018 6.09134C110.037 6.1452 110.068 6.1941 110.109 6.23457C110.149 6.27504 110.198 6.3061 110.252 6.32547C110.306 6.34485 110.363 6.35209 110.42 6.34668H111.975C112.201 6.34141 112.425 6.38368 112.633 6.47072C112.841 6.55777 113.029 6.68764 113.184 6.85192C113.342 7.01458 113.466 7.20681 113.549 7.41756C113.633 7.62831 113.673 7.85346 113.67 8.08008C113.677 8.30083 113.638 8.52073 113.554 8.72513C113.471 8.92953 113.344 9.11373 113.184 9.26546C113.016 9.42191 112.819 9.54365 112.605 9.6237C112.39 9.70374 112.161 9.74051 111.932 9.73184H110.413C110.356 9.72644 110.298 9.73367 110.244 9.75305C110.191 9.77243 110.142 9.80346 110.101 9.84393C110.061 9.8844 110.03 9.9333 110.01 9.98716C109.991 10.041 109.984 10.0985 109.989 10.1555V14.1314C109.949 14.505 110.046 14.8806 110.261 15.1885C110.35 15.285 110.458 15.3614 110.579 15.4123C110.699 15.4633 110.83 15.4877 110.961 15.4839C111.189 15.4672 111.415 15.4321 111.637 15.3789C111.847 15.3288 112.06 15.2937 112.274 15.274C112.49 15.2702 112.703 15.3134 112.9 15.4007C113.096 15.488 113.272 15.6172 113.413 15.7793C113.685 16.0823 113.848 16.4679 113.876 16.8744C113.903 17.2808 113.794 17.6848 113.565 18.0218C113.32 18.3545 112.969 18.5943 112.57 18.7019C112.223 18.8064 111.87 18.8908 111.513 18.9545C111.179 19.0094 110.841 19.038 110.502 19.04V19.04Z" fill="#FFB92E"/>
<path d="M118.881 19.0401C118.387 19.0554 117.905 18.8895 117.525 18.5738C117.352 18.4331 117.212 18.2552 117.118 18.0533C117.023 17.8515 116.975 17.6309 116.977 17.4078V1.66745C116.975 1.44635 117.021 1.22747 117.112 1.02609C117.203 0.82471 117.338 0.645682 117.505 0.501491C117.883 0.166993 118.377 -0.00723945 118.881 0.015677C119.365 -0.0023156 119.836 0.172415 120.191 0.501491C120.356 0.65517 120.486 0.841909 120.574 1.04953C120.662 1.25714 120.705 1.48096 120.7 1.7063V7.33397C121.105 6.88248 121.613 6.53466 122.181 6.31959C122.81 6.05956 123.485 5.92745 124.167 5.93094C124.866 5.90028 125.564 6.00774 126.222 6.24715C126.879 6.48656 127.483 6.85324 127.999 7.32621C128.97 8.25897 129.456 9.73973 129.456 11.7685V17.4816C129.46 17.6963 129.415 17.909 129.323 18.1031C129.231 18.2973 129.096 18.4676 128.928 18.601C128.552 18.9072 128.079 19.0661 127.595 19.0479C127.107 19.0652 126.632 18.8987 126.262 18.5815C126.093 18.438 125.958 18.2591 125.867 18.0576C125.776 17.8561 125.73 17.6368 125.733 17.4156V12.2271C125.733 11.1907 125.501 10.4432 125.037 9.98457C124.811 9.76317 124.543 9.58928 124.249 9.47314C123.954 9.35699 123.64 9.30095 123.323 9.30832C123.001 9.29802 122.681 9.35452 122.382 9.47425C122.083 9.59399 121.812 9.77435 121.586 10.004C121.157 10.4333 120.85 10.9703 120.7 11.5586V17.3534C120.705 17.5807 120.661 17.8063 120.569 18.0145C120.478 18.2226 120.342 18.4083 120.171 18.5582C119.82 18.8804 119.357 19.0532 118.881 19.0401V19.0401Z" fill="#FFB92E"/>
</g>
<defs>
<clipPath id="clip0_1593_365">
<rect width="129.456" height="20" fill="white"/>
</clipPath>
</defs>
</svg>
