<svg width="20" height="20" viewBox="0 0 20 20" fill="none" xmlns="http://www.w3.org/2000/svg">
<path d="M20 10C20 15.5225 15.5225 20 10 20C4.47746 20 0 15.5225 0 10C0 4.47746 4.47746 0 10 0C15.5237 0 20 4.47746 20 10Z" fill="#2081E2"/>
<path d="M4.93421 10.3358L4.97735 10.268L7.57875 6.19842C7.61677 6.13884 7.70615 6.145 7.73491 6.20972C8.16951 7.1837 8.54451 8.39502 8.36883 9.14914C8.29383 9.45942 8.08835 9.87962 7.85717 10.268C7.82739 10.3245 7.79451 10.38 7.75957 10.4334C7.74313 10.4581 7.71539 10.4724 7.68559 10.4724H5.01023C4.93831 10.4724 4.89619 10.3944 4.93421 10.3358Z" fill="white"/>
<path d="M16.5281 11.0922V11.7364C16.5281 11.7734 16.5055 11.8062 16.4726 11.8206C16.2713 11.9069 15.5819 12.2234 15.2952 12.622C14.5637 13.6402 14.0048 15.096 12.7555 15.096H7.54342C5.69616 15.096 4.19922 13.5939 4.19922 11.7405V11.6809C4.19922 11.6316 4.23928 11.5915 4.2886 11.5915H7.19412C7.25164 11.5915 7.29376 11.6449 7.28864 11.7014C7.26808 11.8905 7.30302 12.0836 7.3924 12.2593C7.565 12.6097 7.92254 12.8285 8.30884 12.8285H9.74722V11.7056H8.32528C8.25234 11.7056 8.2092 11.6213 8.25132 11.5617C8.26672 11.5381 8.2842 11.5134 8.30268 11.4857C8.43728 11.2946 8.6294 10.9977 8.8205 10.6597C8.95098 10.4316 9.07734 10.1881 9.17906 9.94356C9.19962 9.89938 9.21604 9.85416 9.23248 9.80998C9.26022 9.7319 9.289 9.65896 9.30954 9.58602C9.3301 9.52436 9.34652 9.45964 9.36296 9.39902C9.41126 9.19148 9.4318 8.97162 9.4318 8.74354C9.4318 8.65416 9.4277 8.56066 9.41948 8.47128C9.41536 8.37368 9.40304 8.27606 9.3907 8.17846C9.38248 8.09216 9.36708 8.00688 9.35064 7.9175C9.3301 7.78702 9.30132 7.65758 9.26844 7.52708L9.25714 7.47778C9.23248 7.38838 9.21194 7.30312 9.18318 7.21374C9.102 6.93324 9.00852 6.65996 8.90988 6.40414C8.87392 6.30242 8.83282 6.20482 8.79172 6.10722C8.73112 5.9603 8.66946 5.82674 8.61296 5.70036C8.5842 5.64282 8.55954 5.59042 8.53488 5.537C8.50714 5.47638 8.47838 5.41576 8.4496 5.35824C8.42906 5.31406 8.40542 5.27296 8.38898 5.23186L8.2133 4.9072C8.18864 4.86302 8.22974 4.81062 8.27802 4.82398L9.37736 5.12192H9.38044C9.38248 5.12192 9.38352 5.12296 9.38454 5.12296L9.5294 5.16302L9.68866 5.20824L9.74722 5.22466V4.57124C9.74722 4.25582 9.99996 4 10.3123 4C10.4685 4 10.6102 4.0637 10.712 4.16746C10.8137 4.27124 10.8774 4.41302 10.8774 4.57124V5.54112L10.9945 5.57398C11.0037 5.57708 11.013 5.58118 11.0212 5.58734C11.05 5.60892 11.0911 5.64076 11.1435 5.67982C11.1846 5.71268 11.2287 5.75276 11.2822 5.79386C11.388 5.87912 11.5144 5.98906 11.6531 6.11544C11.69 6.14728 11.726 6.18016 11.7589 6.21304C11.9377 6.37948 12.138 6.57468 12.3291 6.79044C12.3825 6.85106 12.4349 6.9127 12.4883 6.97742C12.5418 7.04318 12.5983 7.1079 12.6476 7.17264C12.7123 7.25894 12.7822 7.34832 12.8428 7.44182C12.8716 7.486 12.9044 7.5312 12.9322 7.57538C13.0103 7.69352 13.0791 7.8158 13.1449 7.93806C13.1726 7.99456 13.2014 8.0562 13.226 8.11682C13.299 8.28018 13.3565 8.44662 13.3935 8.61306C13.4048 8.64902 13.413 8.68806 13.4171 8.723V8.73122C13.4294 8.78052 13.4336 8.83292 13.4377 8.88634C13.4541 9.0569 13.4459 9.22744 13.4089 9.39902C13.3935 9.47198 13.3729 9.5408 13.3483 9.61376C13.3236 9.68362 13.299 9.75656 13.2671 9.8254C13.2055 9.9682 13.1325 10.111 13.0462 10.2446C13.0185 10.2939 12.9856 10.3463 12.9527 10.3956C12.9168 10.448 12.8798 10.4973 12.8469 10.5456C12.8017 10.6073 12.7534 10.672 12.7041 10.7295C12.6599 10.7901 12.6147 10.8508 12.5654 10.9042C12.4966 10.9853 12.4308 11.0624 12.362 11.1364C12.3209 11.1847 12.2767 11.234 12.2315 11.2782C12.1873 11.3275 12.1421 11.3716 12.101 11.4127C12.0322 11.4816 11.9746 11.535 11.9263 11.5792L11.8133 11.683C11.7969 11.6973 11.7753 11.7056 11.7527 11.7056H10.8774V12.8285H11.9787C12.2253 12.8285 12.4596 12.7412 12.6486 12.5809C12.7133 12.5244 12.9959 12.2799 13.3298 11.911C13.3411 11.8987 13.3555 11.8895 13.3719 11.8854L16.4141 11.0059C16.4706 10.9895 16.5281 11.0326 16.5281 11.0922Z" fill="white"/>
</svg>
